<svg width="60" height="89" viewBox="0 0 60 89" fill="none" xmlns="http://www.w3.org/2000/svg">
<path d="M6.64 71.04C14.32 64.64 20.44 59.32 25 55.08C29.56 50.76 33.36 46.28 36.4 41.64C39.44 37 40.96 32.44 40.96 27.96C40.96 23.88 40 20.68 38.08 18.36C36.16 16.04 33.2 14.88 29.2 14.88C25.2 14.88 22.12 16.24 19.96 18.96C17.8 21.6 16.68 25.24 16.6 29.88H0.28C0.6 20.28 3.44 13 8.8 8.04C14.24 3.07999 21.12 0.599992 29.44 0.599992C38.56 0.599992 45.56 3.03999 50.44 7.92C55.32 12.72 57.76 19.08 57.76 27C57.76 33.24 56.08 39.2 52.72 44.88C49.36 50.56 45.52 55.52 41.2 59.76C36.88 63.92 31.24 68.96 24.28 74.88H59.68V88.8H0.4V76.32L6.64 71.04Z" fill="white"/>
</svg>
