<svg width="60" height="91" viewBox="0 0 60 91" fill="none" xmlns="http://www.w3.org/2000/svg">
<path d="M1.6 25.56C2 17.56 4.8 11.4 10 7.07999C15.28 2.67999 22.2 0.479994 30.76 0.479994C36.6 0.479994 41.6 1.51999 45.76 3.6C49.92 5.59999 53.04 8.35999 55.12 11.88C57.28 15.32 58.36 19.24 58.36 23.64C58.36 28.68 57.04 32.96 54.4 36.48C51.84 39.92 48.76 42.24 45.16 43.44V43.92C49.8 45.36 53.4 47.92 55.96 51.6C58.6 55.28 59.92 60 59.92 65.76C59.92 70.56 58.8 74.84 56.56 78.6C54.4 82.36 51.16 85.32 46.84 87.48C42.6 89.56 37.48 90.6 31.48 90.6C22.44 90.6 15.08 88.32 9.4 83.76C3.72 79.2 0.72 72.48 0.4 63.6H16.72C16.88 67.52 18.2 70.68 20.68 73.08C23.24 75.4 26.72 76.56 31.12 76.56C35.2 76.56 38.32 75.44 40.48 73.2C42.72 70.88 43.84 67.92 43.84 64.32C43.84 59.52 42.32 56.08 39.28 54C36.24 51.92 31.52 50.88 25.12 50.88H21.64V37.08H25.12C36.48 37.08 42.16 33.28 42.16 25.68C42.16 22.24 41.12 19.56 39.04 17.64C37.04 15.72 34.12 14.76 30.28 14.76C26.52 14.76 23.6 15.8 21.52 17.88C19.52 19.88 18.36 22.44 18.04 25.56H1.6Z" fill="white"/>
</svg>
